# xmcd
#
# Track frame offsets:
#	150
#	14007
#	33112
#	46965
#	61505
#	74155
#	88910
#	102737
#	119712
#	132675
#	145710
#	159287
#	178815
#	192147
#	207652
#	214172
#	231207
#	243322
#
# Disc length: 3480
#
# Revision: 1
# Processed by: cddbd v1.5.1PL0 Copyright (c) Steve Scherf et al.
# Submitted via: FreeRIP 2.51 
# Normalized: r0:DSETVAR1,TDELIM( - )
#
DISCID=160d9612
DTITLE=Various Artist - The Best Of the Blues
DYEAR=1995
DGENRE=Blues
TTITLE0=Little Milton - Hard luck Blues
TTITLE1=Etta James - Baby what you want me to do
TTITLE2=Willie Dixon - Walking the Blues
TTITLE3=Buddy Guy - My time after a while
TTITLE4=Howlin' Wolf and Eric Clapton - Highway 49
TTITLE5=Eddie Boyd - Third degre
TTITLE6=Muddy Waters - Walkin' Blues
TTITLE7=Little Milton - Please, please, please
TTITLE8=Jimmy Rodgers - This has never been
TTITLE9=Lowell Fulson - Trouble, truble
TTITLE10=John Lee Hooker - One Bourbon, one scotch, one beer
TTITLE11=Koko Taylor and Willie Dixon - Insane asylum
TTITLE12=Muddy Waters - Manish boy
TTITLE13=Eddie Boyd and his Chess Man - 24 Hours
TTITLE14=Howlin' Wolf and Eric Clapton - The red rooster (Rehersal)
TTITLE15=Howlin' Wolf and Eric Clapton - The red rooster
TTITLE16=Elmore James - The sun is shining
TTITLE17=Buddy Guy - Stick around
EXTD=
EXTT0=
EXTT1=
EXTT2=
EXTT3=
EXTT4=
EXTT5=
EXTT6=
EXTT7=
EXTT8=
EXTT9=
EXTT10=
EXTT11=
EXTT12=
EXTT13=
EXTT14=
EXTT15=
EXTT16=
EXTT17=
PLAYORDER=
